# xmcd
#
# Track frame offsets: 
#        150
#        10451
#        20301
#        30491
#        41495
#        50948
#        61836
#        73167
#        83595
#        97409
#        107168
#        121791
#        134415
#        144698
#        156935
#        168780
#        189969
#        216139
#        227113
#        237851
#        247287
#        257714
#        276675
#        286646
#        299099
#
# Disc length: 4153 seconds
#
# Revision: 0
# Processed by: cddbd v1.5.2PL0 Copyright (c) Steve Scherf et al.
# Submitted via: ExactAudioCopy v0.95b4
#
DISCID=7d103719
DTITLE=Chet Atkins - The RCA Days Of Chet Atkins - The Nashville Jump 
DTITLE=Disk.2
DYEAR=2006
DGENRE=Country
TTITLE0=Mister Sandman
TTITLE1=New Spanish Two Step
TTITLE2=Silver Bell
TTITLE3=The Old Spinning Wheel
TTITLE4=Heartaches
TTITLE5=Walk Don't Run
TTITLE6=Django's Castle
TTITLE7=Blue Steel Blues
TTITLE8=How High The Moon
TTITLE9=Jerry's Breakdown
TTITLE10=Mule Skinner Blues
TTITLE11=Mystery Train
TTITLE12=The Claw
TTITLE13=Smile
TTITLE14=Hawaiian Slack Key
TTITLE15=Sweet Georgia Brown
TTITLE16=Polka Dots And Moonbeams
TTITLE17=Cascade
TTITLE18=I Got A Woman
TTITLE19=The Bilbao Song
TTITLE20=The Entertainer
TTITLE21=I Can Hear Kentucky Calling Me
TTITLE22=Chaplin In New Shoes
TTITLE23=Song For Anna
TTITLE24=Me And My Guitar
EXTD=
EXTT0=
EXTT1=
EXTT2=
EXTT3=
EXTT4=
EXTT5=
EXTT6=
EXTT7=
EXTT8=
EXTT9=
EXTT10=
EXTT11=
EXTT12=
EXTT13=
EXTT14=
EXTT15=
EXTT16=
EXTT17=
EXTT18=
EXTT19=
EXTT20=
EXTT21=
EXTT22=
EXTT23=
EXTT24=
PLAYORDER=
